# File created by Blade
# Date/Time:  Tue Apr 07 20:13:55 2015
# Frame Rate: 120.000 fps
#------------------------------------------------------
:FULLY-SPECIFIED
:DEGREES
3542
root 2.558345 32.842943 -11.093400 -12.418874 -16.043061 -25.294188
Spine 28.330658 -18.801475 -0.812460
Head -4.741381 -5.123076 14.221536
LeftShoulder 8.254202 21.724105 32.183441
LeftArm 92.200504 9.458968 -58.919250
LeftForeArm -13.493811 -0.000000 62.321833
LeftHand 16.708991 -0.000000 -1.721207
LeftHandThumb1 -26.253704 0.000000 33.147579
RightShoulder 2.952956 -0.787702 -15.827770
RightArm 21.371268 -21.636144 65.682326
RightForeArm 62.082091 -0.000000 77.737026
RightHand 0.438042 -0.000000 25.670882
RightHandThumb1 -24.326973 -0.000000 -32.862282
LeftUpLeg 6.195552 0.972020 21.433844
LeftLeg 28.525173 -0.000000 -0.000000
LeftFoot -22.876179 9.688213 -14.934702
LeftToeBase -7.475964 -0.000000 0.000000
RightUpLeg -112.018752 -23.927715 2.100030
RightLeg 42.805109 -0.000000 -0.000000
RightFoot 43.663986 -13.725289 -1.322992
RightToeBase 35.054564 -0.000000 -0.000000
3543
root 2.573875 32.848208 -11.042573 -12.738180 -16.027458 -24.988054
Spine 28.563064 -18.832415 -1.132563
Head -4.828094 -5.113637 14.174722
LeftShoulder 8.208022 21.877842 32.179880
LeftArm 91.873207 9.440390 -59.798934
LeftForeArm -14.512334 -0.000000 62.233712
LeftHand 16.837195 0.000000 -0.318100
LeftHandThumb1 -26.253704 0.000000 33.147579
RightShoulder 2.949250 -0.882853 -15.975588
RightArm 21.193505 -21.447268 66.021000
RightForeArm 61.799945 -0.000000 78.085274
RightHand 0.433777 -0.000000 25.723459
RightHandThumb1 -24.326973 -0.000000 -32.862282
LeftUpLeg 6.499991 1.070359 21.089796
LeftLeg 28.422157 -0.000000 -0.000000
LeftFoot -22.084279 10.208003 -13.878042
LeftToeBase -8.891936 -0.000000 0.000000
RightUpLeg -112.425135 -23.997646 2.341811
RightLeg 43.081208 -0.000000 -0.000000
RightFoot 43.586616 -13.681923 -1.309734
RightToeBase 34.980710 -0.000000 -0.000000
3544
root 2.592226 32.850552 -10.989110 -13.036957 -16.089585 -24.708985
Spine 28.758542 -18.786429 -1.356278
Head -4.889513 -5.144368 14.064724
LeftShoulder 8.177486 21.966308 32.167864
LeftArm 91.544187 9.457547 -60.725819
LeftForeArm -15.799829 -0.000000 61.974695
LeftHand 16.900275 -0.000000 0.885490
LeftHandThumb1 -26.253704 0.000000 33.147579
RightShoulder 2.905312 -1.017708 -16.146394
RightArm 21.101975 -21.320577 66.273704
RightForeArm 61.576084 -0.000000 78.430535
RightHand 0.421171 -0.000000 25.694709
RightHandThumb1 -24.326973 -0.000000 -32.862282
LeftUpLeg 6.833746 1.198452 20.755373
LeftLeg 28.318328 -0.000000 -0.000000
LeftFoot -21.508024 10.796719 -12.924734
LeftToeBase -10.081984 -0.000000 0.000000
RightUpLeg -112.832125 -24.002320 2.607744
RightLeg 43.401542 -0.000000 -0.000000
RightFoot 43.435466 -13.874578 -1.179936
RightToeBase 35.157187 -0.000000 -0.000000
3545
root 2.615652 32.844913 -10.933837 -13.268156 -16.169821 -24.383862
Spine 28.836031 -18.714304 -1.557203
Head -4.914099 -5.186187 13.912826
LeftShoulder 8.187562 21.957950 32.176868
LeftArm 91.140748 9.550094 -61.755206
LeftForeArm -17.038224 -0.000000 61.559581
LeftHand 16.880640 0.000000 2.319301
LeftHandThumb1 -26.253704 0.000000 33.147579
RightShoulder 2.803660 -1.140695 -16.311564
RightArm 21.066717 -21.263781 66.467804
RightForeArm 61.323188 -0.000000 78.756084
RightHand 0.395096 0.000000 25.779785
RightHandThumb1 -24.326973 -0.000000 -32.862282
LeftUpLeg 7.111616 1.320257 20.332476
LeftLeg 28.214118 -0.000000 -0.000000
LeftFoot -21.042145 11.398022 -12.054555
LeftToeBase -10.558108 -0.000000 0.000000
RightUpLeg -113.270761 -23.976455 2.782633
RightLeg 43.714343 -0.000000 -0.000000
RightFoot 43.350648 -13.977712 -1.098062
RightToeBase 35.368033 -0.000000 -0.000000
